<?xml version="1.0" encoding="UTF-8"?><svg xmlns="http://www.w3.org/2000/svg" xmlns:xlink="http://www.w3.org/1999/xlink" contentStyleType="text/css" height="610px" preserveAspectRatio="none" style="width:2665px;height:610px;background:#FFFFFF;" version="1.1" viewBox="0 0 2665 610" width="2665px" zoomAndPan="magnify">
    <defs/>
    <g>
        <!--cluster Usuarios-->
        <g id="cluster_Usuarios">
            <path d="M423.5,6 L486.5,6 A3.75,3.75 0 0 1 489,8.5 L496,29.6094 L1200.5,29.6094 A2.5,2.5 0 0 1 1203,32.1094 L1203,405.5 A2.5,2.5 0 0 1 1200.5,408 L423.5,408 A2.5,2.5 0 0 1 421,405.5 L421,8.5 A2.5,2.5 0 0 1 423.5,6 " fill="#F9F9F9" style="stroke:#000000;stroke-width:1.5;"/>
            <line style="stroke:#000000;stroke-width:1.5;" x1="421" x2="496" y1="29.6094" y2="29.6094"/>
            <text fill="#000000" font-family="sans-serif" font-size="14" font-weight="bold" lengthAdjust="spacing" textLength="62" x="425" y="22.5332">Usuarios</text>
        </g>
        <!--cluster Datos M?dicos-->
        <g id="cluster_Datos Médicos">
            <path d="M8.5,32.5 L113.5,32.5 A3.75,3.75 0 0 1 116,35 L123,56.1094 L394.5,56.1094 A2.5,2.5 0 0 1 397,58.6094 L397,423.5 A2.5,2.5 0 0 1 394.5,426 L8.5,426 A2.5,2.5 0 0 1 6,423.5 L6,35 A2.5,2.5 0 0 1 8.5,32.5 " fill="#F9F9F9" style="stroke:#000000;stroke-width:1.5;"/>
            <line style="stroke:#000000;stroke-width:1.5;" x1="6" x2="123" y1="56.1094" y2="56.1094"/>
            <text fill="#000000" font-family="sans-serif" font-size="14" font-weight="bold" lengthAdjust="spacing" textLength="104" x="10" y="49.0332">Datos Médicos</text>
        </g>
        <!--cluster Estructuras de Datos-->
        <g id="cluster_Estructuras de Datos">
            <path d="M1229.5,238 L1377.5,238 A3.75,3.75 0 0 1 1380,240.5 L1387,261.6094 L2655.5,261.6094 A2.5,2.5 0 0 1 2658,264.1094 L2658,405.5 A2.5,2.5 0 0 1 2655.5,408 L1229.5,408 A2.5,2.5 0 0 1 1227,405.5 L1227,240.5 A2.5,2.5 0 0 1 1229.5,238 " fill="#F9F9F9" style="stroke:#000000;stroke-width:1.5;"/>
            <line style="stroke:#000000;stroke-width:1.5;" x1="1227" x2="1387" y1="261.6094" y2="261.6094"/>
            <text fill="#000000" font-family="sans-serif" font-size="14" font-weight="bold" lengthAdjust="spacing" textLength="147" x="1231" y="254.5332">Estructuras de Datos</text>
        </g>
        <!--cluster Nodos-->
        <g id="cluster_Nodos">
            <path d="M1391.5,450 L1437.5,450 A3.75,3.75 0 0 1 1440,452.5 L1447,473.6094 L2526.5,473.6094 A2.5,2.5 0 0 1 2529,476.1094 L2529,600.5 A2.5,2.5 0 0 1 2526.5,603 L1391.5,603 A2.5,2.5 0 0 1 1389,600.5 L1389,452.5 A2.5,2.5 0 0 1 1391.5,450 " fill="#F9F9F9" style="stroke:#000000;stroke-width:1.5;"/>
            <line style="stroke:#000000;stroke-width:1.5;" x1="1389" x2="1447" y1="473.6094" y2="473.6094"/>
            <text fill="#000000" font-family="sans-serif" font-size="14" font-weight="bold" lengthAdjust="spacing" textLength="45" x="1393" y="466.5332">Nodos</text>
        </g>
        <!--class Usuario-->
        <g id="elem_Usuario">
            <rect codeLine="7" fill="#FFFFFF" height="118.4375" id="Usuario" rx="2.5" ry="2.5" style="stroke:#181818;stroke-width:0.5;" width="144" x="633" y="274"/>
            <ellipse cx="676.8" cy="290" fill="#ADD1B2" rx="11" ry="11" style="stroke:#181818;stroke-width:1.0;"/>
            <path d="M679.5656,285.875 Q679.7219,285.6563 679.9094,285.5469 Q680.0969,285.4375 680.3156,285.4375 Q680.6906,285.4375 680.925,285.7031 Q681.1594,285.9531 681.1594,286.5625 L681.1594,288.0156 Q681.1594,288.625 680.925,288.8906 Q680.6906,289.1563 680.3156,289.1563 Q679.9719,289.1563 679.7688,288.9531 Q679.5656,288.7656 679.4563,288.25 Q679.4094,287.8906 679.2219,287.7031 Q678.8938,287.3281 678.2844,287.1094 Q677.675,286.8906 677.05,286.8906 Q676.2844,286.8906 675.6438,287.2188 Q675.0188,287.5469 674.5188,288.2969 Q674.0344,289.0469 674.0344,290.0781 L674.0344,291.1719 Q674.0344,292.4063 674.925,293.2344 Q675.8156,294.0469 677.4094,294.0469 Q678.3469,294.0469 679.0031,293.7969 Q679.3938,293.6406 679.8156,293.2031 Q680.0813,292.9375 680.2219,292.8594 Q680.3781,292.7813 680.5813,292.7813 Q680.9094,292.7813 681.1594,293.0469 Q681.425,293.2969 681.425,293.6406 Q681.425,293.9844 681.0813,294.3906 Q680.5813,294.9688 679.7844,295.2969 Q678.7063,295.75 677.4094,295.75 Q675.8938,295.75 674.6906,295.125 Q673.7063,294.625 673.0188,293.5625 Q672.3313,292.4844 672.3313,291.2031 L672.3313,290.0469 Q672.3313,288.7188 672.9406,287.5781 Q673.5656,286.4219 674.6594,285.8125 Q675.7531,285.1875 676.9875,285.1875 Q677.7219,285.1875 678.3625,285.3594 Q679.0188,285.5156 679.5656,285.875 Z " fill="#000000"/>
            <text fill="#000000" font-family="sans-serif" font-size="14" lengthAdjust="spacing" textLength="48" x="697.2" y="295.7285">Usuario</text>
            <line style="stroke:#181818;stroke-width:0.5;" x1="634" x2="776" y1="306" y2="306"/>
            <text fill="#000000" font-family="sans-serif" font-size="14" lengthAdjust="spacing" textLength="98" x="639" y="324.5332">-nombre: String</text>
            <text fill="#000000" font-family="sans-serif" font-size="14" lengthAdjust="spacing" textLength="92" x="639" y="342.1426">-cedula: String</text>
            <line style="stroke:#181818;stroke-width:1.0;" x1="634" x2="776" y1="349.2188" y2="349.2188"/>
            <text fill="#000000" font-family="sans-serif" font-size="14" lengthAdjust="spacing" textLength="132" x="639" y="367.752">+getNombre(): String</text>
            <text fill="#000000" font-family="sans-serif" font-size="14" lengthAdjust="spacing" textLength="128" x="639" y="385.3613">+getCedula(): String</text>
        </g>
        <!--class Paciente-->
        <g id="elem_Paciente">
            <rect codeLine="15" fill="#FFFFFF" height="118.4375" id="Paciente" rx="2.5" ry="2.5" style="stroke:#181818;stroke-width:0.5;" width="130" x="640" y="60"/>
            <ellipse cx="674.35" cy="76" fill="#ADD1B2" rx="11" ry="11" style="stroke:#181818;stroke-width:1.0;"/>
            <path d="M677.1156,71.875 Q677.2719,71.6563 677.4594,71.5469 Q677.6469,71.4375 677.8656,71.4375 Q678.2406,71.4375 678.475,71.7031 Q678.7094,71.9531 678.7094,72.5625 L678.7094,74.0156 Q678.7094,74.625 678.475,74.8906 Q678.2406,75.1563 677.8656,75.1563 Q677.5219,75.1563 677.3188,74.9531 Q677.1156,74.7656 677.0063,74.25 Q676.9594,73.8906 676.7719,73.7031 Q676.4438,73.3281 675.8344,73.1094 Q675.225,72.8906 674.6,72.8906 Q673.8344,72.8906 673.1938,73.2188 Q672.5688,73.5469 672.0688,74.2969 Q671.5844,75.0469 671.5844,76.0781 L671.5844,77.1719 Q671.5844,78.4063 672.475,79.2344 Q673.3656,80.0469 674.9594,80.0469 Q675.8969,80.0469 676.5531,79.7969 Q676.9438,79.6406 677.3656,79.2031 Q677.6313,78.9375 677.7719,78.8594 Q677.9281,78.7813 678.1313,78.7813 Q678.4594,78.7813 678.7094,79.0469 Q678.975,79.2969 678.975,79.6406 Q678.975,79.9844 678.6313,80.3906 Q678.1313,80.9688 677.3344,81.2969 Q676.2563,81.75 674.9594,81.75 Q673.4438,81.75 672.2406,81.125 Q671.2563,80.625 670.5688,79.5625 Q669.8813,78.4844 669.8813,77.2031 L669.8813,76.0469 Q669.8813,74.7188 670.4906,73.5781 Q671.1156,72.4219 672.2094,71.8125 Q673.3031,71.1875 674.5375,71.1875 Q675.2719,71.1875 675.9125,71.3594 Q676.5688,71.5156 677.1156,71.875 Z " fill="#000000"/>
            <text fill="#000000" font-family="sans-serif" font-size="14" lengthAdjust="spacing" textLength="55" x="692.65" y="81.7285">Paciente</text>
            <line style="stroke:#181818;stroke-width:0.5;" x1="641" x2="769" y1="92" y2="92"/>
            <text fill="#000000" font-family="sans-serif" font-size="14" lengthAdjust="spacing" textLength="63" x="646" y="110.5332">-f_h: Date</text>
            <text fill="#000000" font-family="sans-serif" font-size="14" lengthAdjust="spacing" textLength="80" x="646" y="128.1426">-ficha: String</text>
            <line style="stroke:#181818;stroke-width:1.0;" x1="641" x2="769" y1="135.2188" y2="135.2188"/>
            <text fill="#000000" font-family="sans-serif" font-size="14" lengthAdjust="spacing" textLength="118" x="646" y="153.752">+getFicha(): String</text>
            <text fill="#000000" font-family="sans-serif" font-size="14" lengthAdjust="spacing" textLength="101" x="646" y="171.3613">+getF_h(): Date</text>
        </g>
        <!--class Queja-->
        <g id="elem_Queja">
            <rect codeLine="23" fill="#FFFFFF" height="118.4375" id="Queja" rx="2.5" ry="2.5" style="stroke:#181818;stroke-width:0.5;" width="168" x="437" y="60"/>
            <ellipse cx="497.75" cy="76" fill="#ADD1B2" rx="11" ry="11" style="stroke:#181818;stroke-width:1.0;"/>
            <path d="M500.5156,71.875 Q500.6719,71.6563 500.8594,71.5469 Q501.0469,71.4375 501.2656,71.4375 Q501.6406,71.4375 501.875,71.7031 Q502.1094,71.9531 502.1094,72.5625 L502.1094,74.0156 Q502.1094,74.625 501.875,74.8906 Q501.6406,75.1563 501.2656,75.1563 Q500.9219,75.1563 500.7188,74.9531 Q500.5156,74.7656 500.4063,74.25 Q500.3594,73.8906 500.1719,73.7031 Q499.8438,73.3281 499.2344,73.1094 Q498.625,72.8906 498,72.8906 Q497.2344,72.8906 496.5938,73.2188 Q495.9688,73.5469 495.4688,74.2969 Q494.9844,75.0469 494.9844,76.0781 L494.9844,77.1719 Q494.9844,78.4063 495.875,79.2344 Q496.7656,80.0469 498.3594,80.0469 Q499.2969,80.0469 499.9531,79.7969 Q500.3438,79.6406 500.7656,79.2031 Q501.0313,78.9375 501.1719,78.8594 Q501.3281,78.7813 501.5313,78.7813 Q501.8594,78.7813 502.1094,79.0469 Q502.375,79.2969 502.375,79.6406 Q502.375,79.9844 502.0313,80.3906 Q501.5313,80.9688 500.7344,81.2969 Q499.6563,81.75 498.3594,81.75 Q496.8438,81.75 495.6406,81.125 Q494.6563,80.625 493.9688,79.5625 Q493.2813,78.4844 493.2813,77.2031 L493.2813,76.0469 Q493.2813,74.7188 493.8906,73.5781 Q494.5156,72.4219 495.6094,71.8125 Q496.7031,71.1875 497.9375,71.1875 Q498.6719,71.1875 499.3125,71.3594 Q499.9688,71.5156 500.5156,71.875 Z " fill="#000000"/>
            <text fill="#000000" font-family="sans-serif" font-size="14" lengthAdjust="spacing" textLength="38" x="518.25" y="81.7285">Queja</text>
            <line style="stroke:#181818;stroke-width:0.5;" x1="438" x2="604" y1="92" y2="92"/>
            <text fill="#000000" font-family="sans-serif" font-size="14" lengthAdjust="spacing" textLength="78" x="443" y="110.5332">-fecha: Date</text>
            <text fill="#000000" font-family="sans-serif" font-size="14" lengthAdjust="spacing" textLength="120" x="443" y="128.1426">-comentario: String</text>
            <line style="stroke:#181818;stroke-width:1.0;" x1="438" x2="604" y1="135.2188" y2="135.2188"/>
            <text fill="#000000" font-family="sans-serif" font-size="14" lengthAdjust="spacing" textLength="156" x="443" y="153.752">+getComentario(): String</text>
            <text fill="#000000" font-family="sans-serif" font-size="14" lengthAdjust="spacing" textLength="116" x="443" y="171.3613">+getFecha(): Date</text>
        </g>
        <!--class Expediente-->
        <g id="elem_Expediente">
            <rect codeLine="31" fill="#FFFFFF" height="153.6563" id="Expediente" rx="2.5" ry="2.5" style="stroke:#181818;stroke-width:0.5;" width="381" x="805.5" y="42"/>
            <ellipse cx="956.75" cy="58" fill="#ADD1B2" rx="11" ry="11" style="stroke:#181818;stroke-width:1.0;"/>
            <path d="M959.5156,53.875 Q959.6719,53.6563 959.8594,53.5469 Q960.0469,53.4375 960.2656,53.4375 Q960.6406,53.4375 960.875,53.7031 Q961.1094,53.9531 961.1094,54.5625 L961.1094,56.0156 Q961.1094,56.625 960.875,56.8906 Q960.6406,57.1563 960.2656,57.1563 Q959.9219,57.1563 959.7188,56.9531 Q959.5156,56.7656 959.4063,56.25 Q959.3594,55.8906 959.1719,55.7031 Q958.8438,55.3281 958.2344,55.1094 Q957.625,54.8906 957,54.8906 Q956.2344,54.8906 955.5938,55.2188 Q954.9688,55.5469 954.4688,56.2969 Q953.9844,57.0469 953.9844,58.0781 L953.9844,59.1719 Q953.9844,60.4063 954.875,61.2344 Q955.7656,62.0469 957.3594,62.0469 Q958.2969,62.0469 958.9531,61.7969 Q959.3438,61.6406 959.7656,61.2031 Q960.0313,60.9375 960.1719,60.8594 Q960.3281,60.7813 960.5313,60.7813 Q960.8594,60.7813 961.1094,61.0469 Q961.375,61.2969 961.375,61.6406 Q961.375,61.9844 961.0313,62.3906 Q960.5313,62.9688 959.7344,63.2969 Q958.6563,63.75 957.3594,63.75 Q955.8438,63.75 954.6406,63.125 Q953.6563,62.625 952.9688,61.5625 Q952.2813,60.4844 952.2813,59.2031 L952.2813,58.0469 Q952.2813,56.7188 952.8906,55.5781 Q953.5156,54.4219 954.6094,53.8125 Q955.7031,53.1875 956.9375,53.1875 Q957.6719,53.1875 958.3125,53.3594 Q958.9688,53.5156 959.5156,53.875 Z " fill="#000000"/>
            <text fill="#000000" font-family="sans-serif" font-size="14" lengthAdjust="spacing" textLength="70" x="977.25" y="63.7285">Expediente</text>
            <line style="stroke:#181818;stroke-width:0.5;" x1="806.5" x2="1185.5" y1="74" y2="74"/>
            <text fill="#000000" font-family="sans-serif" font-size="14" lengthAdjust="spacing" textLength="60" x="811.5" y="92.5332">-edad: int</text>
            <text fill="#000000" font-family="sans-serif" font-size="14" lengthAdjust="spacing" textLength="95" x="811.5" y="110.1426">-genero: String</text>
            <text fill="#000000" font-family="sans-serif" font-size="14" lengthAdjust="spacing" textLength="251" x="811.5" y="127.752">-historicoCitas: ListaSimpleCircularCitas</text>
            <text fill="#000000" font-family="sans-serif" font-size="14" lengthAdjust="spacing" textLength="369" x="811.5" y="145.3613">-historicoMedicamentos: ListaSimpleCircularMedicamentos</text>
            <line style="stroke:#181818;stroke-width:1.0;" x1="806.5" x2="1185.5" y1="152.4375" y2="152.4375"/>
            <text fill="#000000" font-family="sans-serif" font-size="14" lengthAdjust="spacing" textLength="94" x="811.5" y="170.9707">+getEdad(): int</text>
            <text fill="#000000" font-family="sans-serif" font-size="14" lengthAdjust="spacing" textLength="131" x="811.5" y="188.5801">+getGenero(): String</text>
        </g>
        <!--class Cita-->
        <g id="elem_Cita">
            <rect codeLine="47" fill="#FFFFFF" height="100.8281" id="Cita" rx="2.5" ry="2.5" style="stroke:#181818;stroke-width:0.5;" width="152" x="22" y="68.5"/>
            <ellipse cx="81.25" cy="84.5" fill="#ADD1B2" rx="11" ry="11" style="stroke:#181818;stroke-width:1.0;"/>
            <path d="M84.0156,80.375 Q84.1719,80.1563 84.3594,80.0469 Q84.5469,79.9375 84.7656,79.9375 Q85.1406,79.9375 85.375,80.2031 Q85.6094,80.4531 85.6094,81.0625 L85.6094,82.5156 Q85.6094,83.125 85.375,83.3906 Q85.1406,83.6563 84.7656,83.6563 Q84.4219,83.6563 84.2188,83.4531 Q84.0156,83.2656 83.9063,82.75 Q83.8594,82.3906 83.6719,82.2031 Q83.3438,81.8281 82.7344,81.6094 Q82.125,81.3906 81.5,81.3906 Q80.7344,81.3906 80.0938,81.7188 Q79.4688,82.0469 78.9688,82.7969 Q78.4844,83.5469 78.4844,84.5781 L78.4844,85.6719 Q78.4844,86.9063 79.375,87.7344 Q80.2656,88.5469 81.8594,88.5469 Q82.7969,88.5469 83.4531,88.2969 Q83.8438,88.1406 84.2656,87.7031 Q84.5313,87.4375 84.6719,87.3594 Q84.8281,87.2813 85.0313,87.2813 Q85.3594,87.2813 85.6094,87.5469 Q85.875,87.7969 85.875,88.1406 Q85.875,88.4844 85.5313,88.8906 Q85.0313,89.4688 84.2344,89.7969 Q83.1563,90.25 81.8594,90.25 Q80.3438,90.25 79.1406,89.625 Q78.1563,89.125 77.4688,88.0625 Q76.7813,86.9844 76.7813,85.7031 L76.7813,84.5469 Q76.7813,83.2188 77.3906,82.0781 Q78.0156,80.9219 79.1094,80.3125 Q80.2031,79.6875 81.4375,79.6875 Q82.1719,79.6875 82.8125,79.8594 Q83.4688,80.0156 84.0156,80.375 Z " fill="#000000"/>
            <text fill="#000000" font-family="sans-serif" font-size="14" lengthAdjust="spacing" textLength="25" x="101.75" y="90.2285">Cita</text>
            <line style="stroke:#181818;stroke-width:0.5;" x1="23" x2="173" y1="100.5" y2="100.5"/>
            <text fill="#000000" font-family="sans-serif" font-size="14" lengthAdjust="spacing" textLength="78" x="28" y="119.0332">-fecha: Date</text>
            <text fill="#000000" font-family="sans-serif" font-size="14" lengthAdjust="spacing" textLength="140" x="28" y="136.6426">-nombreDoctor: String</text>
            <text fill="#000000" font-family="sans-serif" font-size="14" lengthAdjust="spacing" textLength="122" x="28" y="154.252">-diagnostico: String</text>
            <line style="stroke:#181818;stroke-width:0.5;" x1="23" x2="173" y1="161.3281" y2="161.3281"/>
        </g>
        <!--class MedicamentoPrescrito-->
        <g id="elem_MedicamentoPrescrito">
            <rect codeLine="53" fill="#FFFFFF" height="83.2188" id="MedicamentoPrescrito" rx="2.5" ry="2.5" style="stroke:#181818;stroke-width:0.5;" width="172" x="209" y="77.5"/>
            <ellipse cx="224" cy="93.5" fill="#ADD1B2" rx="11" ry="11" style="stroke:#181818;stroke-width:1.0;"/>
            <path d="M226.7656,89.375 Q226.9219,89.1563 227.1094,89.0469 Q227.2969,88.9375 227.5156,88.9375 Q227.8906,88.9375 228.125,89.2031 Q228.3594,89.4531 228.3594,90.0625 L228.3594,91.5156 Q228.3594,92.125 228.125,92.3906 Q227.8906,92.6563 227.5156,92.6563 Q227.1719,92.6563 226.9688,92.4531 Q226.7656,92.2656 226.6563,91.75 Q226.6094,91.3906 226.4219,91.2031 Q226.0938,90.8281 225.4844,90.6094 Q224.875,90.3906 224.25,90.3906 Q223.4844,90.3906 222.8438,90.7188 Q222.2188,91.0469 221.7188,91.7969 Q221.2344,92.5469 221.2344,93.5781 L221.2344,94.6719 Q221.2344,95.9063 222.125,96.7344 Q223.0156,97.5469 224.6094,97.5469 Q225.5469,97.5469 226.2031,97.2969 Q226.5938,97.1406 227.0156,96.7031 Q227.2813,96.4375 227.4219,96.3594 Q227.5781,96.2813 227.7813,96.2813 Q228.1094,96.2813 228.3594,96.5469 Q228.625,96.7969 228.625,97.1406 Q228.625,97.4844 228.2813,97.8906 Q227.7813,98.4688 226.9844,98.7969 Q225.9063,99.25 224.6094,99.25 Q223.0938,99.25 221.8906,98.625 Q220.9063,98.125 220.2188,97.0625 Q219.5313,95.9844 219.5313,94.7031 L219.5313,93.5469 Q219.5313,92.2188 220.1406,91.0781 Q220.7656,89.9219 221.8594,89.3125 Q222.9531,88.6875 224.1875,88.6875 Q224.9219,88.6875 225.5625,88.8594 Q226.2188,89.0156 226.7656,89.375 Z " fill="#000000"/>
            <text fill="#000000" font-family="sans-serif" font-size="14" lengthAdjust="spacing" textLength="140" x="238" y="99.2285">MedicamentoPrescrito</text>
            <line style="stroke:#181818;stroke-width:0.5;" x1="210" x2="380" y1="109.5" y2="109.5"/>
            <text fill="#000000" font-family="sans-serif" font-size="14" lengthAdjust="spacing" textLength="156" x="215" y="128.0332">-fechaPrescripcion: Date</text>
            <text fill="#000000" font-family="sans-serif" font-size="14" lengthAdjust="spacing" textLength="134" x="215" y="145.6426">-medicamento: String</text>
            <line style="stroke:#181818;stroke-width:0.5;" x1="210" x2="380" y1="152.7188" y2="152.7188"/>
        </g>
        <!--class BitacoraCitaDia-->
        <g id="elem_BitacoraCitaDia">
            <rect codeLine="58" fill="#FFFFFF" height="153.6563" id="BitacoraCitaDia" rx="2.5" ry="2.5" style="stroke:#181818;stroke-width:0.5;" width="203" x="22.5" y="256"/>
            <ellipse cx="70.75" cy="272" fill="#ADD1B2" rx="11" ry="11" style="stroke:#181818;stroke-width:1.0;"/>
            <path d="M73.5156,267.875 Q73.6719,267.6563 73.8594,267.5469 Q74.0469,267.4375 74.2656,267.4375 Q74.6406,267.4375 74.875,267.7031 Q75.1094,267.9531 75.1094,268.5625 L75.1094,270.0156 Q75.1094,270.625 74.875,270.8906 Q74.6406,271.1563 74.2656,271.1563 Q73.9219,271.1563 73.7188,270.9531 Q73.5156,270.7656 73.4063,270.25 Q73.3594,269.8906 73.1719,269.7031 Q72.8438,269.3281 72.2344,269.1094 Q71.625,268.8906 71,268.8906 Q70.2344,268.8906 69.5938,269.2188 Q68.9688,269.5469 68.4688,270.2969 Q67.9844,271.0469 67.9844,272.0781 L67.9844,273.1719 Q67.9844,274.4063 68.875,275.2344 Q69.7656,276.0469 71.3594,276.0469 Q72.2969,276.0469 72.9531,275.7969 Q73.3438,275.6406 73.7656,275.2031 Q74.0313,274.9375 74.1719,274.8594 Q74.3281,274.7813 74.5313,274.7813 Q74.8594,274.7813 75.1094,275.0469 Q75.375,275.2969 75.375,275.6406 Q75.375,275.9844 75.0313,276.3906 Q74.5313,276.9688 73.7344,277.2969 Q72.6563,277.75 71.3594,277.75 Q69.8438,277.75 68.6406,277.125 Q67.6563,276.625 66.9688,275.5625 Q66.2813,274.4844 66.2813,273.2031 L66.2813,272.0469 Q66.2813,270.7188 66.8906,269.5781 Q67.5156,268.4219 68.6094,267.8125 Q69.7031,267.1875 70.9375,267.1875 Q71.6719,267.1875 72.3125,267.3594 Q72.9688,267.5156 73.5156,267.875 Z " fill="#000000"/>
            <text fill="#000000" font-family="sans-serif" font-size="14" lengthAdjust="spacing" textLength="98" x="91.25" y="277.7285">BitacoraCitaDia</text>
            <line style="stroke:#181818;stroke-width:0.5;" x1="23.5" x2="224.5" y1="288" y2="288"/>
            <text fill="#000000" font-family="sans-serif" font-size="14" lengthAdjust="spacing" textLength="133" x="28.5" y="306.5332">-numeroFicha: String</text>
            <text fill="#000000" font-family="sans-serif" font-size="14" lengthAdjust="spacing" textLength="129" x="28.5" y="324.1426">-fechaLlegada: Date</text>
            <text fill="#000000" font-family="sans-serif" font-size="14" lengthAdjust="spacing" textLength="133" x="28.5" y="341.752">-fechaAtencion: Date</text>
            <text fill="#000000" font-family="sans-serif" font-size="14" lengthAdjust="spacing" textLength="147" x="28.5" y="359.3613">-cedulaPaciente: String</text>
            <text fill="#000000" font-family="sans-serif" font-size="14" lengthAdjust="spacing" textLength="153" x="28.5" y="376.9707">-nombrePaciente: String</text>
            <text fill="#000000" font-family="sans-serif" font-size="14" lengthAdjust="spacing" textLength="191" x="28.5" y="394.5801">-tiempoEsperaSegundos: long</text>
            <line style="stroke:#181818;stroke-width:0.5;" x1="23.5" x2="224.5" y1="401.6563" y2="401.6563"/>
        </g>
        <!--class Cola-->
        <g id="elem_Cola">
            <rect codeLine="69" fill="#FFFFFF" height="118.4375" id="Cola" rx="2.5" ry="2.5" style="stroke:#181818;stroke-width:0.5;" width="163" x="2478.5" y="274"/>
            <ellipse cx="2541.25" cy="290" fill="#ADD1B2" rx="11" ry="11" style="stroke:#181818;stroke-width:1.0;"/>
            <path d="M2544.0156,285.875 Q2544.1719,285.6563 2544.3594,285.5469 Q2544.5469,285.4375 2544.7656,285.4375 Q2545.1406,285.4375 2545.375,285.7031 Q2545.6094,285.9531 2545.6094,286.5625 L2545.6094,288.0156 Q2545.6094,288.625 2545.375,288.8906 Q2545.1406,289.1563 2544.7656,289.1563 Q2544.4219,289.1563 2544.2188,288.9531 Q2544.0156,288.7656 2543.9063,288.25 Q2543.8594,287.8906 2543.6719,287.7031 Q2543.3438,287.3281 2542.7344,287.1094 Q2542.125,286.8906 2541.5,286.8906 Q2540.7344,286.8906 2540.0938,287.2188 Q2539.4688,287.5469 2538.9688,288.2969 Q2538.4844,289.0469 2538.4844,290.0781 L2538.4844,291.1719 Q2538.4844,292.4063 2539.375,293.2344 Q2540.2656,294.0469 2541.8594,294.0469 Q2542.7969,294.0469 2543.4531,293.7969 Q2543.8438,293.6406 2544.2656,293.2031 Q2544.5313,292.9375 2544.6719,292.8594 Q2544.8281,292.7813 2545.0313,292.7813 Q2545.3594,292.7813 2545.6094,293.0469 Q2545.875,293.2969 2545.875,293.6406 Q2545.875,293.9844 2545.5313,294.3906 Q2545.0313,294.9688 2544.2344,295.2969 Q2543.1563,295.75 2541.8594,295.75 Q2540.3438,295.75 2539.1406,295.125 Q2538.1563,294.625 2537.4688,293.5625 Q2536.7813,292.4844 2536.7813,291.2031 L2536.7813,290.0469 Q2536.7813,288.7188 2537.3906,287.5781 Q2538.0156,286.4219 2539.1094,285.8125 Q2540.2031,285.1875 2541.4375,285.1875 Q2542.1719,285.1875 2542.8125,285.3594 Q2543.4688,285.5156 2544.0156,285.875 Z " fill="#000000"/>
            <text fill="#000000" font-family="sans-serif" font-size="14" lengthAdjust="spacing" textLength="29" x="2561.75" y="295.7285">Cola</text>
            <line style="stroke:#181818;stroke-width:0.5;" x1="2479.5" x2="2640.5" y1="306" y2="306"/>
            <text fill="#000000" font-family="sans-serif" font-size="14" lengthAdjust="spacing" textLength="83" x="2484.5" y="324.5332">-frente: Nodo</text>
            <text fill="#000000" font-family="sans-serif" font-size="14" lengthAdjust="spacing" textLength="83" x="2484.5" y="342.1426">-ultimo: Nodo</text>
            <line style="stroke:#181818;stroke-width:1.0;" x1="2479.5" x2="2640.5" y1="349.2188" y2="349.2188"/>
            <text fill="#000000" font-family="sans-serif" font-size="14" lengthAdjust="spacing" textLength="120" x="2484.5" y="367.752">+encolar(Paciente)</text>
            <text fill="#000000" font-family="sans-serif" font-size="14" lengthAdjust="spacing" textLength="151" x="2484.5" y="385.3613">+desencolar(): Paciente</text>
        </g>
        <!--class QuejasPila-->
        <g id="elem_QuejasPila">
            <rect codeLine="77" fill="#FFFFFF" height="100.8281" id="QuejasPila" rx="2.5" ry="2.5" style="stroke:#181818;stroke-width:0.5;" width="134" x="2309" y="282.5"/>
            <ellipse cx="2339.3" cy="298.5" fill="#ADD1B2" rx="11" ry="11" style="stroke:#181818;stroke-width:1.0;"/>
            <path d="M2342.0656,294.375 Q2342.2219,294.1563 2342.4094,294.0469 Q2342.5969,293.9375 2342.8156,293.9375 Q2343.1906,293.9375 2343.425,294.2031 Q2343.6594,294.4531 2343.6594,295.0625 L2343.6594,296.5156 Q2343.6594,297.125 2343.425,297.3906 Q2343.1906,297.6563 2342.8156,297.6563 Q2342.4719,297.6563 2342.2688,297.4531 Q2342.0656,297.2656 2341.9563,296.75 Q2341.9094,296.3906 2341.7219,296.2031 Q2341.3938,295.8281 2340.7844,295.6094 Q2340.175,295.3906 2339.55,295.3906 Q2338.7844,295.3906 2338.1438,295.7188 Q2337.5188,296.0469 2337.0188,296.7969 Q2336.5344,297.5469 2336.5344,298.5781 L2336.5344,299.6719 Q2336.5344,300.9063 2337.425,301.7344 Q2338.3156,302.5469 2339.9094,302.5469 Q2340.8469,302.5469 2341.5031,302.2969 Q2341.8938,302.1406 2342.3156,301.7031 Q2342.5813,301.4375 2342.7219,301.3594 Q2342.8781,301.2813 2343.0813,301.2813 Q2343.4094,301.2813 2343.6594,301.5469 Q2343.925,301.7969 2343.925,302.1406 Q2343.925,302.4844 2343.5813,302.8906 Q2343.0813,303.4688 2342.2844,303.7969 Q2341.2063,304.25 2339.9094,304.25 Q2338.3938,304.25 2337.1906,303.625 Q2336.2063,303.125 2335.5188,302.0625 Q2334.8313,300.9844 2334.8313,299.7031 L2334.8313,298.5469 Q2334.8313,297.2188 2335.4406,296.0781 Q2336.0656,294.9219 2337.1594,294.3125 Q2338.2531,293.6875 2339.4875,293.6875 Q2340.2219,293.6875 2340.8625,293.8594 Q2341.5188,294.0156 2342.0656,294.375 Z " fill="#000000"/>
            <text fill="#000000" font-family="sans-serif" font-size="14" lengthAdjust="spacing" textLength="68" x="2356.7" y="304.2285">QuejasPila</text>
            <line style="stroke:#181818;stroke-width:0.5;" x1="2310" x2="2442" y1="314.5" y2="314.5"/>
            <text fill="#000000" font-family="sans-serif" font-size="14" lengthAdjust="spacing" textLength="84" x="2315" y="333.0332">-cima: NodoP</text>
            <line style="stroke:#181818;stroke-width:1.0;" x1="2310" x2="2442" y1="340.1094" y2="340.1094"/>
            <text fill="#000000" font-family="sans-serif" font-size="14" lengthAdjust="spacing" textLength="91" x="2315" y="358.6426">+apilar(Queja)</text>
            <text fill="#000000" font-family="sans-serif" font-size="14" lengthAdjust="spacing" textLength="122" x="2315" y="376.252">+desapilar(): Queja</text>
        </g>
        <!--class ListaDobleCircularExpedientes-->
        <g id="elem_ListaDobleCircularExpedientes">
            <rect codeLine="84" fill="#FFFFFF" height="100.8281" id="ListaDobleCircularExpedientes" rx="2.5" ry="2.5" style="stroke:#181818;stroke-width:0.5;" width="255" x="2018.5" y="282.5"/>
            <ellipse cx="2047" cy="298.5" fill="#ADD1B2" rx="11" ry="11" style="stroke:#181818;stroke-width:1.0;"/>
            <path d="M2049.7656,294.375 Q2049.9219,294.1563 2050.1094,294.0469 Q2050.2969,293.9375 2050.5156,293.9375 Q2050.8906,293.9375 2051.125,294.2031 Q2051.3594,294.4531 2051.3594,295.0625 L2051.3594,296.5156 Q2051.3594,297.125 2051.125,297.3906 Q2050.8906,297.6563 2050.5156,297.6563 Q2050.1719,297.6563 2049.9688,297.4531 Q2049.7656,297.2656 2049.6563,296.75 Q2049.6094,296.3906 2049.4219,296.2031 Q2049.0938,295.8281 2048.4844,295.6094 Q2047.875,295.3906 2047.25,295.3906 Q2046.4844,295.3906 2045.8438,295.7188 Q2045.2188,296.0469 2044.7188,296.7969 Q2044.2344,297.5469 2044.2344,298.5781 L2044.2344,299.6719 Q2044.2344,300.9063 2045.125,301.7344 Q2046.0156,302.5469 2047.6094,302.5469 Q2048.5469,302.5469 2049.2031,302.2969 Q2049.5938,302.1406 2050.0156,301.7031 Q2050.2813,301.4375 2050.4219,301.3594 Q2050.5781,301.2813 2050.7813,301.2813 Q2051.1094,301.2813 2051.3594,301.5469 Q2051.625,301.7969 2051.625,302.1406 Q2051.625,302.4844 2051.2813,302.8906 Q2050.7813,303.4688 2049.9844,303.7969 Q2048.9063,304.25 2047.6094,304.25 Q2046.0938,304.25 2044.8906,303.625 Q2043.9063,303.125 2043.2188,302.0625 Q2042.5313,300.9844 2042.5313,299.7031 L2042.5313,298.5469 Q2042.5313,297.2188 2043.1406,296.0781 Q2043.7656,294.9219 2044.8594,294.3125 Q2045.9531,293.6875 2047.1875,293.6875 Q2047.9219,293.6875 2048.5625,293.8594 Q2049.2188,294.0156 2049.7656,294.375 Z " fill="#000000"/>
            <text fill="#000000" font-family="sans-serif" font-size="14" lengthAdjust="spacing" textLength="193" x="2064" y="304.2285">ListaDobleCircularExpedientes</text>
            <line style="stroke:#181818;stroke-width:0.5;" x1="2019.5" x2="2272.5" y1="314.5" y2="314.5"/>
            <text fill="#000000" font-family="sans-serif" font-size="14" lengthAdjust="spacing" textLength="161" x="2024.5" y="333.0332">-cabeza: NodoExpediente</text>
            <line style="stroke:#181818;stroke-width:1.0;" x1="2019.5" x2="2272.5" y1="340.1094" y2="340.1094"/>
            <text fill="#000000" font-family="sans-serif" font-size="14" lengthAdjust="spacing" textLength="200" x="2024.5" y="358.6426">+insertarOrdenado(Expediente)</text>
            <text fill="#000000" font-family="sans-serif" font-size="14" lengthAdjust="spacing" textLength="243" x="2024.5" y="376.252">+buscarPorCedula(String): Expediente</text>
        </g>
        <!--class ListaSimpleBitacoraCitas-->
        <g id="elem_ListaSimpleBitacoraCitas">
            <rect codeLine="91" fill="#FFFFFF" height="83.2188" id="ListaSimpleBitacoraCitas" rx="2.5" ry="2.5" style="stroke:#181818;stroke-width:0.5;" width="240" x="1743" y="291.5"/>
            <ellipse cx="1781.4" cy="307.5" fill="#ADD1B2" rx="11" ry="11" style="stroke:#181818;stroke-width:1.0;"/>
            <path d="M1784.1656,303.375 Q1784.3219,303.1563 1784.5094,303.0469 Q1784.6969,302.9375 1784.9156,302.9375 Q1785.2906,302.9375 1785.525,303.2031 Q1785.7594,303.4531 1785.7594,304.0625 L1785.7594,305.5156 Q1785.7594,306.125 1785.525,306.3906 Q1785.2906,306.6563 1784.9156,306.6563 Q1784.5719,306.6563 1784.3688,306.4531 Q1784.1656,306.2656 1784.0563,305.75 Q1784.0094,305.3906 1783.8219,305.2031 Q1783.4938,304.8281 1782.8844,304.6094 Q1782.275,304.3906 1781.65,304.3906 Q1780.8844,304.3906 1780.2438,304.7188 Q1779.6188,305.0469 1779.1188,305.7969 Q1778.6344,306.5469 1778.6344,307.5781 L1778.6344,308.6719 Q1778.6344,309.9063 1779.525,310.7344 Q1780.4156,311.5469 1782.0094,311.5469 Q1782.9469,311.5469 1783.6031,311.2969 Q1783.9938,311.1406 1784.4156,310.7031 Q1784.6813,310.4375 1784.8219,310.3594 Q1784.9781,310.2813 1785.1813,310.2813 Q1785.5094,310.2813 1785.7594,310.5469 Q1786.025,310.7969 1786.025,311.1406 Q1786.025,311.4844 1785.6813,311.8906 Q1785.1813,312.4688 1784.3844,312.7969 Q1783.3063,313.25 1782.0094,313.25 Q1780.4938,313.25 1779.2906,312.625 Q1778.3063,312.125 1777.6188,311.0625 Q1776.9313,309.9844 1776.9313,308.7031 L1776.9313,307.5469 Q1776.9313,306.2188 1777.5406,305.0781 Q1778.1656,303.9219 1779.2594,303.3125 Q1780.3531,302.6875 1781.5875,302.6875 Q1782.3219,302.6875 1782.9625,302.8594 Q1783.6188,303.0156 1784.1656,303.375 Z " fill="#000000"/>
            <text fill="#000000" font-family="sans-serif" font-size="14" lengthAdjust="spacing" textLength="156" x="1800.6" y="313.2285">ListaSimpleBitacoraCitas</text>
            <line style="stroke:#181818;stroke-width:0.5;" x1="1744" x2="1982" y1="323.5" y2="323.5"/>
            <text fill="#000000" font-family="sans-serif" font-size="14" lengthAdjust="spacing" textLength="143" x="1749" y="342.0332">-cabeza: NodoBitacora</text>
            <line style="stroke:#181818;stroke-width:1.0;" x1="1744" x2="1982" y1="349.1094" y2="349.1094"/>
            <text fill="#000000" font-family="sans-serif" font-size="14" lengthAdjust="spacing" textLength="228" x="1749" y="367.6426">+insertarOrdenado(BitacoraCitaDia)</text>
        </g>
        <!--class ListaSimpleCircularCitas-->
        <g id="elem_ListaSimpleCircularCitas">
            <rect codeLine="97" fill="#FFFFFF" height="83.2188" id="ListaSimpleCircularCitas" rx="2.5" ry="2.5" style="stroke:#181818;stroke-width:0.5;" width="185" x="1522.5" y="291.5"/>
            <ellipse cx="1537.5" cy="307.5" fill="#ADD1B2" rx="11" ry="11" style="stroke:#181818;stroke-width:1.0;"/>
            <path d="M1540.2656,303.375 Q1540.4219,303.1563 1540.6094,303.0469 Q1540.7969,302.9375 1541.0156,302.9375 Q1541.3906,302.9375 1541.625,303.2031 Q1541.8594,303.4531 1541.8594,304.0625 L1541.8594,305.5156 Q1541.8594,306.125 1541.625,306.3906 Q1541.3906,306.6563 1541.0156,306.6563 Q1540.6719,306.6563 1540.4688,306.4531 Q1540.2656,306.2656 1540.1563,305.75 Q1540.1094,305.3906 1539.9219,305.2031 Q1539.5938,304.8281 1538.9844,304.6094 Q1538.375,304.3906 1537.75,304.3906 Q1536.9844,304.3906 1536.3438,304.7188 Q1535.7188,305.0469 1535.2188,305.7969 Q1534.7344,306.5469 1534.7344,307.5781 L1534.7344,308.6719 Q1534.7344,309.9063 1535.625,310.7344 Q1536.5156,311.5469 1538.1094,311.5469 Q1539.0469,311.5469 1539.7031,311.2969 Q1540.0938,311.1406 1540.5156,310.7031 Q1540.7813,310.4375 1540.9219,310.3594 Q1541.0781,310.2813 1541.2813,310.2813 Q1541.6094,310.2813 1541.8594,310.5469 Q1542.125,310.7969 1542.125,311.1406 Q1542.125,311.4844 1541.7813,311.8906 Q1541.2813,312.4688 1540.4844,312.7969 Q1539.4063,313.25 1538.1094,313.25 Q1536.5938,313.25 1535.3906,312.625 Q1534.4063,312.125 1533.7188,311.0625 Q1533.0313,309.9844 1533.0313,308.7031 L1533.0313,307.5469 Q1533.0313,306.2188 1533.6406,305.0781 Q1534.2656,303.9219 1535.3594,303.3125 Q1536.4531,302.6875 1537.6875,302.6875 Q1538.4219,302.6875 1539.0625,302.8594 Q1539.7188,303.0156 1540.2656,303.375 Z " fill="#000000"/>
            <text fill="#000000" font-family="sans-serif" font-size="14" lengthAdjust="spacing" textLength="153" x="1551.5" y="313.2285">ListaSimpleCircularCitas</text>
            <line style="stroke:#181818;stroke-width:0.5;" x1="1523.5" x2="1706.5" y1="323.5" y2="323.5"/>
            <text fill="#000000" font-family="sans-serif" font-size="14" lengthAdjust="spacing" textLength="116" x="1528.5" y="342.0332">-cabeza: NodoCita</text>
            <line style="stroke:#181818;stroke-width:1.0;" x1="1523.5" x2="1706.5" y1="349.1094" y2="349.1094"/>
            <text fill="#000000" font-family="sans-serif" font-size="14" lengthAdjust="spacing" textLength="91" x="1528.5" y="367.6426">+insertar(Cita)</text>
        </g>
        <!--class ListaSimpleCircularMedicamentos-->
        <g id="elem_ListaSimpleCircularMedicamentos">
            <rect codeLine="103" fill="#FFFFFF" height="83.2188" id="ListaSimpleCircularMedicamentos" rx="2.5" ry="2.5" style="stroke:#181818;stroke-width:0.5;" width="244" x="1243" y="291.5"/>
            <ellipse cx="1258" cy="307.5" fill="#ADD1B2" rx="11" ry="11" style="stroke:#181818;stroke-width:1.0;"/>
            <path d="M1260.7656,303.375 Q1260.9219,303.1563 1261.1094,303.0469 Q1261.2969,302.9375 1261.5156,302.9375 Q1261.8906,302.9375 1262.125,303.2031 Q1262.3594,303.4531 1262.3594,304.0625 L1262.3594,305.5156 Q1262.3594,306.125 1262.125,306.3906 Q1261.8906,306.6563 1261.5156,306.6563 Q1261.1719,306.6563 1260.9688,306.4531 Q1260.7656,306.2656 1260.6563,305.75 Q1260.6094,305.3906 1260.4219,305.2031 Q1260.0938,304.8281 1259.4844,304.6094 Q1258.875,304.3906 1258.25,304.3906 Q1257.4844,304.3906 1256.8438,304.7188 Q1256.2188,305.0469 1255.7188,305.7969 Q1255.2344,306.5469 1255.2344,307.5781 L1255.2344,308.6719 Q1255.2344,309.9063 1256.125,310.7344 Q1257.0156,311.5469 1258.6094,311.5469 Q1259.5469,311.5469 1260.2031,311.2969 Q1260.5938,311.1406 1261.0156,310.7031 Q1261.2813,310.4375 1261.4219,310.3594 Q1261.5781,310.2813 1261.7813,310.2813 Q1262.1094,310.2813 1262.3594,310.5469 Q1262.625,310.7969 1262.625,311.1406 Q1262.625,311.4844 1262.2813,311.8906 Q1261.7813,312.4688 1260.9844,312.7969 Q1259.9063,313.25 1258.6094,313.25 Q1257.0938,313.25 1255.8906,312.625 Q1254.9063,312.125 1254.2188,311.0625 Q1253.5313,309.9844 1253.5313,308.7031 L1253.5313,307.5469 Q1253.5313,306.2188 1254.1406,305.0781 Q1254.7656,303.9219 1255.8594,303.3125 Q1256.9531,302.6875 1258.1875,302.6875 Q1258.9219,302.6875 1259.5625,302.8594 Q1260.2188,303.0156 1260.7656,303.375 Z " fill="#000000"/>
            <text fill="#000000" font-family="sans-serif" font-size="14" lengthAdjust="spacing" textLength="212" x="1272" y="313.2285">ListaSimpleCircularMedicamentos</text>
            <line style="stroke:#181818;stroke-width:0.5;" x1="1244" x2="1486" y1="323.5" y2="323.5"/>
            <text fill="#000000" font-family="sans-serif" font-size="14" lengthAdjust="spacing" textLength="175" x="1249" y="342.0332">-cabeza: NodoMedicamento</text>
            <line style="stroke:#181818;stroke-width:1.0;" x1="1244" x2="1486" y1="349.1094" y2="349.1094"/>
            <text fill="#000000" font-family="sans-serif" font-size="14" lengthAdjust="spacing" textLength="206" x="1249" y="367.6426">+insertar(MedicamentoPrescrito)</text>
        </g>
        <!--class Nodo-->
        <g id="elem_Nodo">
            <rect codeLine="111" fill="#FFFFFF" height="83.2188" id="Nodo" rx="2.5" ry="2.5" style="stroke:#181818;stroke-width:0.5;" width="115" x="2397.5" y="495"/>
            <ellipse cx="2435" cy="511" fill="#ADD1B2" rx="11" ry="11" style="stroke:#181818;stroke-width:1.0;"/>
            <path d="M2437.7656,506.875 Q2437.9219,506.6563 2438.1094,506.5469 Q2438.2969,506.4375 2438.5156,506.4375 Q2438.8906,506.4375 2439.125,506.7031 Q2439.3594,506.9531 2439.3594,507.5625 L2439.3594,509.0156 Q2439.3594,509.625 2439.125,509.8906 Q2438.8906,510.1563 2438.5156,510.1563 Q2438.1719,510.1563 2437.9688,509.9531 Q2437.7656,509.7656 2437.6563,509.25 Q2437.6094,508.8906 2437.4219,508.7031 Q2437.0938,508.3281 2436.4844,508.1094 Q2435.875,507.8906 2435.25,507.8906 Q2434.4844,507.8906 2433.8438,508.2188 Q2433.2188,508.5469 2432.7188,509.2969 Q2432.2344,510.0469 2432.2344,511.0781 L2432.2344,512.1719 Q2432.2344,513.4063 2433.125,514.2344 Q2434.0156,515.0469 2435.6094,515.0469 Q2436.5469,515.0469 2437.2031,514.7969 Q2437.5938,514.6406 2438.0156,514.2031 Q2438.2813,513.9375 2438.4219,513.8594 Q2438.5781,513.7813 2438.7813,513.7813 Q2439.1094,513.7813 2439.3594,514.0469 Q2439.625,514.2969 2439.625,514.6406 Q2439.625,514.9844 2439.2813,515.3906 Q2438.7813,515.9688 2437.9844,516.2969 Q2436.9063,516.75 2435.6094,516.75 Q2434.0938,516.75 2432.8906,516.125 Q2431.9063,515.625 2431.2188,514.5625 Q2430.5313,513.4844 2430.5313,512.2031 L2430.5313,511.0469 Q2430.5313,509.7188 2431.1406,508.5781 Q2431.7656,507.4219 2432.8594,506.8125 Q2433.9531,506.1875 2435.1875,506.1875 Q2435.9219,506.1875 2436.5625,506.3594 Q2437.2188,506.5156 2437.7656,506.875 Z " fill="#000000"/>
            <text fill="#000000" font-family="sans-serif" font-size="14" lengthAdjust="spacing" textLength="33" x="2454" y="516.7285">Nodo</text>
            <line style="stroke:#181818;stroke-width:0.5;" x1="2398.5" x2="2511.5" y1="527" y2="527"/>
            <text fill="#000000" font-family="sans-serif" font-size="14" lengthAdjust="spacing" textLength="96" x="2403.5" y="545.5332">-dato: Paciente</text>
            <text fill="#000000" font-family="sans-serif" font-size="14" lengthAdjust="spacing" textLength="103" x="2403.5" y="563.1426">-siguiente: Nodo</text>
            <line style="stroke:#181818;stroke-width:0.5;" x1="2398.5" x2="2511.5" y1="570.2188" y2="570.2188"/>
        </g>
        <!--class NodoP-->
        <g id="elem_NodoP">
            <rect codeLine="116" fill="#FFFFFF" height="83.2188" id="NodoP" rx="2.5" ry="2.5" style="stroke:#181818;stroke-width:0.5;" width="124" x="2238" y="495"/>
            <ellipse cx="2275.5" cy="511" fill="#ADD1B2" rx="11" ry="11" style="stroke:#181818;stroke-width:1.0;"/>
            <path d="M2278.2656,506.875 Q2278.4219,506.6563 2278.6094,506.5469 Q2278.7969,506.4375 2279.0156,506.4375 Q2279.3906,506.4375 2279.625,506.7031 Q2279.8594,506.9531 2279.8594,507.5625 L2279.8594,509.0156 Q2279.8594,509.625 2279.625,509.8906 Q2279.3906,510.1563 2279.0156,510.1563 Q2278.6719,510.1563 2278.4688,509.9531 Q2278.2656,509.7656 2278.1563,509.25 Q2278.1094,508.8906 2277.9219,508.7031 Q2277.5938,508.3281 2276.9844,508.1094 Q2276.375,507.8906 2275.75,507.8906 Q2274.9844,507.8906 2274.3438,508.2188 Q2273.7188,508.5469 2273.2188,509.2969 Q2272.7344,510.0469 2272.7344,511.0781 L2272.7344,512.1719 Q2272.7344,513.4063 2273.625,514.2344 Q2274.5156,515.0469 2276.1094,515.0469 Q2277.0469,515.0469 2277.7031,514.7969 Q2278.0938,514.6406 2278.5156,514.2031 Q2278.7813,513.9375 2278.9219,513.8594 Q2279.0781,513.7813 2279.2813,513.7813 Q2279.6094,513.7813 2279.8594,514.0469 Q2280.125,514.2969 2280.125,514.6406 Q2280.125,514.9844 2279.7813,515.3906 Q2279.2813,515.9688 2278.4844,516.2969 Q2277.4063,516.75 2276.1094,516.75 Q2274.5938,516.75 2273.3906,516.125 Q2272.4063,515.625 2271.7188,514.5625 Q2271.0313,513.4844 2271.0313,512.2031 L2271.0313,511.0469 Q2271.0313,509.7188 2271.6406,508.5781 Q2272.2656,507.4219 2273.3594,506.8125 Q2274.4531,506.1875 2275.6875,506.1875 Q2276.4219,506.1875 2277.0625,506.3594 Q2277.7188,506.5156 2278.2656,506.875 Z " fill="#000000"/>
            <text fill="#000000" font-family="sans-serif" font-size="14" lengthAdjust="spacing" textLength="42" x="2294.5" y="516.7285">NodoP</text>
            <line style="stroke:#181818;stroke-width:0.5;" x1="2239" x2="2361" y1="527" y2="527"/>
            <text fill="#000000" font-family="sans-serif" font-size="14" lengthAdjust="spacing" textLength="79" x="2244" y="545.5332">-dato: Queja</text>
            <text fill="#000000" font-family="sans-serif" font-size="14" lengthAdjust="spacing" textLength="112" x="2244" y="563.1426">-siguiente: NodoP</text>
            <line style="stroke:#181818;stroke-width:0.5;" x1="2239" x2="2361" y1="570.2188" y2="570.2188"/>
        </g>
        <!--class NodoExpediente-->
        <g id="elem_NodoExpediente">
            <rect codeLine="121" fill="#FFFFFF" height="100.8281" id="NodoExpediente" rx="2.5" ry="2.5" style="stroke:#181818;stroke-width:0.5;" width="185" x="2017.5" y="486"/>
            <ellipse cx="2055" cy="502" fill="#ADD1B2" rx="11" ry="11" style="stroke:#181818;stroke-width:1.0;"/>
            <path d="M2057.7656,497.875 Q2057.9219,497.6563 2058.1094,497.5469 Q2058.2969,497.4375 2058.5156,497.4375 Q2058.8906,497.4375 2059.125,497.7031 Q2059.3594,497.9531 2059.3594,498.5625 L2059.3594,500.0156 Q2059.3594,500.625 2059.125,500.8906 Q2058.8906,501.1563 2058.5156,501.1563 Q2058.1719,501.1563 2057.9688,500.9531 Q2057.7656,500.7656 2057.6563,500.25 Q2057.6094,499.8906 2057.4219,499.7031 Q2057.0938,499.3281 2056.4844,499.1094 Q2055.875,498.8906 2055.25,498.8906 Q2054.4844,498.8906 2053.8438,499.2188 Q2053.2188,499.5469 2052.7188,500.2969 Q2052.2344,501.0469 2052.2344,502.0781 L2052.2344,503.1719 Q2052.2344,504.4063 2053.125,505.2344 Q2054.0156,506.0469 2055.6094,506.0469 Q2056.5469,506.0469 2057.2031,505.7969 Q2057.5938,505.6406 2058.0156,505.2031 Q2058.2813,504.9375 2058.4219,504.8594 Q2058.5781,504.7813 2058.7813,504.7813 Q2059.1094,504.7813 2059.3594,505.0469 Q2059.625,505.2969 2059.625,505.6406 Q2059.625,505.9844 2059.2813,506.3906 Q2058.7813,506.9688 2057.9844,507.2969 Q2056.9063,507.75 2055.6094,507.75 Q2054.0938,507.75 2052.8906,507.125 Q2051.9063,506.625 2051.2188,505.5625 Q2050.5313,504.4844 2050.5313,503.2031 L2050.5313,502.0469 Q2050.5313,500.7188 2051.1406,499.5781 Q2051.7656,498.4219 2052.8594,497.8125 Q2053.9531,497.1875 2055.1875,497.1875 Q2055.9219,497.1875 2056.5625,497.3594 Q2057.2188,497.5156 2057.7656,497.875 Z " fill="#000000"/>
            <text fill="#000000" font-family="sans-serif" font-size="14" lengthAdjust="spacing" textLength="103" x="2074" y="507.7285">NodoExpediente</text>
            <line style="stroke:#181818;stroke-width:0.5;" x1="2018.5" x2="2201.5" y1="518" y2="518"/>
            <text fill="#000000" font-family="sans-serif" font-size="14" lengthAdjust="spacing" textLength="111" x="2023.5" y="536.5332">-dato: Expediente</text>
            <text fill="#000000" font-family="sans-serif" font-size="14" lengthAdjust="spacing" textLength="173" x="2023.5" y="554.1426">-siguiente: NodoExpediente</text>
            <text fill="#000000" font-family="sans-serif" font-size="14" lengthAdjust="spacing" textLength="165" x="2023.5" y="571.752">-anterior: NodoExpediente</text>
            <line style="stroke:#181818;stroke-width:0.5;" x1="2018.5" x2="2201.5" y1="578.8281" y2="578.8281"/>
        </g>
        <!--class NodoBitacora-->
        <g id="elem_NodoBitacora">
            <rect codeLine="127" fill="#FFFFFF" height="83.2188" id="NodoBitacora" rx="2.5" ry="2.5" style="stroke:#181818;stroke-width:0.5;" width="167" x="1815.5" y="495"/>
            <ellipse cx="1853" cy="511" fill="#ADD1B2" rx="11" ry="11" style="stroke:#181818;stroke-width:1.0;"/>
            <path d="M1855.7656,506.875 Q1855.9219,506.6563 1856.1094,506.5469 Q1856.2969,506.4375 1856.5156,506.4375 Q1856.8906,506.4375 1857.125,506.7031 Q1857.3594,506.9531 1857.3594,507.5625 L1857.3594,509.0156 Q1857.3594,509.625 1857.125,509.8906 Q1856.8906,510.1563 1856.5156,510.1563 Q1856.1719,510.1563 1855.9688,509.9531 Q1855.7656,509.7656 1855.6563,509.25 Q1855.6094,508.8906 1855.4219,508.7031 Q1855.0938,508.3281 1854.4844,508.1094 Q1853.875,507.8906 1853.25,507.8906 Q1852.4844,507.8906 1851.8438,508.2188 Q1851.2188,508.5469 1850.7188,509.2969 Q1850.2344,510.0469 1850.2344,511.0781 L1850.2344,512.1719 Q1850.2344,513.4063 1851.125,514.2344 Q1852.0156,515.0469 1853.6094,515.0469 Q1854.5469,515.0469 1855.2031,514.7969 Q1855.5938,514.6406 1856.0156,514.2031 Q1856.2813,513.9375 1856.4219,513.8594 Q1856.5781,513.7813 1856.7813,513.7813 Q1857.1094,513.7813 1857.3594,514.0469 Q1857.625,514.2969 1857.625,514.6406 Q1857.625,514.9844 1857.2813,515.3906 Q1856.7813,515.9688 1855.9844,516.2969 Q1854.9063,516.75 1853.6094,516.75 Q1852.0938,516.75 1850.8906,516.125 Q1849.9063,515.625 1849.2188,514.5625 Q1848.5313,513.4844 1848.5313,512.2031 L1848.5313,511.0469 Q1848.5313,509.7188 1849.1406,508.5781 Q1849.7656,507.4219 1850.8594,506.8125 Q1851.9531,506.1875 1853.1875,506.1875 Q1853.9219,506.1875 1854.5625,506.3594 Q1855.2188,506.5156 1855.7656,506.875 Z " fill="#000000"/>
            <text fill="#000000" font-family="sans-serif" font-size="14" lengthAdjust="spacing" textLength="85" x="1872" y="516.7285">NodoBitacora</text>
            <line style="stroke:#181818;stroke-width:0.5;" x1="1816.5" x2="1981.5" y1="527" y2="527"/>
            <text fill="#000000" font-family="sans-serif" font-size="14" lengthAdjust="spacing" textLength="139" x="1821.5" y="545.5332">-dato: BitacoraCitaDia</text>
            <text fill="#000000" font-family="sans-serif" font-size="14" lengthAdjust="spacing" textLength="155" x="1821.5" y="563.1426">-siguiente: NodoBitacora</text>
            <line style="stroke:#181818;stroke-width:0.5;" x1="1816.5" x2="1981.5" y1="570.2188" y2="570.2188"/>
        </g>
        <!--class NodoCita-->
        <g id="elem_NodoCita">
            <rect codeLine="132" fill="#FFFFFF" height="83.2188" id="NodoCita" rx="2.5" ry="2.5" style="stroke:#181818;stroke-width:0.5;" width="140" x="1640" y="495"/>
            <ellipse cx="1677.5" cy="511" fill="#ADD1B2" rx="11" ry="11" style="stroke:#181818;stroke-width:1.0;"/>
            <path d="M1680.2656,506.875 Q1680.4219,506.6563 1680.6094,506.5469 Q1680.7969,506.4375 1681.0156,506.4375 Q1681.3906,506.4375 1681.625,506.7031 Q1681.8594,506.9531 1681.8594,507.5625 L1681.8594,509.0156 Q1681.8594,509.625 1681.625,509.8906 Q1681.3906,510.1563 1681.0156,510.1563 Q1680.6719,510.1563 1680.4688,509.9531 Q1680.2656,509.7656 1680.1563,509.25 Q1680.1094,508.8906 1679.9219,508.7031 Q1679.5938,508.3281 1678.9844,508.1094 Q1678.375,507.8906 1677.75,507.8906 Q1676.9844,507.8906 1676.3438,508.2188 Q1675.7188,508.5469 1675.2188,509.2969 Q1674.7344,510.0469 1674.7344,511.0781 L1674.7344,512.1719 Q1674.7344,513.4063 1675.625,514.2344 Q1676.5156,515.0469 1678.1094,515.0469 Q1679.0469,515.0469 1679.7031,514.7969 Q1680.0938,514.6406 1680.5156,514.2031 Q1680.7813,513.9375 1680.9219,513.8594 Q1681.0781,513.7813 1681.2813,513.7813 Q1681.6094,513.7813 1681.8594,514.0469 Q1682.125,514.2969 1682.125,514.6406 Q1682.125,514.9844 1681.7813,515.3906 Q1681.2813,515.9688 1680.4844,516.2969 Q1679.4063,516.75 1678.1094,516.75 Q1676.5938,516.75 1675.3906,516.125 Q1674.4063,515.625 1673.7188,514.5625 Q1673.0313,513.4844 1673.0313,512.2031 L1673.0313,511.0469 Q1673.0313,509.7188 1673.6406,508.5781 Q1674.2656,507.4219 1675.3594,506.8125 Q1676.4531,506.1875 1677.6875,506.1875 Q1678.4219,506.1875 1679.0625,506.3594 Q1679.7188,506.5156 1680.2656,506.875 Z " fill="#000000"/>
            <text fill="#000000" font-family="sans-serif" font-size="14" lengthAdjust="spacing" textLength="58" x="1696.5" y="516.7285">NodoCita</text>
            <line style="stroke:#181818;stroke-width:0.5;" x1="1641" x2="1779" y1="527" y2="527"/>
            <text fill="#000000" font-family="sans-serif" font-size="14" lengthAdjust="spacing" textLength="66" x="1646" y="545.5332">-dato: Cita</text>
            <text fill="#000000" font-family="sans-serif" font-size="14" lengthAdjust="spacing" textLength="128" x="1646" y="563.1426">-siguiente: NodoCita</text>
            <line style="stroke:#181818;stroke-width:0.5;" x1="1641" x2="1779" y1="570.2188" y2="570.2188"/>
        </g>
        <!--class NodoMedicamento-->
        <g id="elem_NodoMedicamento">
            <rect codeLine="137" fill="#FFFFFF" height="83.2188" id="NodoMedicamento" rx="2.5" ry="2.5" style="stroke:#181818;stroke-width:0.5;" width="199" x="1405.5" y="495"/>
            <ellipse cx="1443" cy="511" fill="#ADD1B2" rx="11" ry="11" style="stroke:#181818;stroke-width:1.0;"/>
            <path d="M1445.7656,506.875 Q1445.9219,506.6563 1446.1094,506.5469 Q1446.2969,506.4375 1446.5156,506.4375 Q1446.8906,506.4375 1447.125,506.7031 Q1447.3594,506.9531 1447.3594,507.5625 L1447.3594,509.0156 Q1447.3594,509.625 1447.125,509.8906 Q1446.8906,510.1563 1446.5156,510.1563 Q1446.1719,510.1563 1445.9688,509.9531 Q1445.7656,509.7656 1445.6563,509.25 Q1445.6094,508.8906 1445.4219,508.7031 Q1445.0938,508.3281 1444.4844,508.1094 Q1443.875,507.8906 1443.25,507.8906 Q1442.4844,507.8906 1441.8438,508.2188 Q1441.2188,508.5469 1440.7188,509.2969 Q1440.2344,510.0469 1440.2344,511.0781 L1440.2344,512.1719 Q1440.2344,513.4063 1441.125,514.2344 Q1442.0156,515.0469 1443.6094,515.0469 Q1444.5469,515.0469 1445.2031,514.7969 Q1445.5938,514.6406 1446.0156,514.2031 Q1446.2813,513.9375 1446.4219,513.8594 Q1446.5781,513.7813 1446.7813,513.7813 Q1447.1094,513.7813 1447.3594,514.0469 Q1447.625,514.2969 1447.625,514.6406 Q1447.625,514.9844 1447.2813,515.3906 Q1446.7813,515.9688 1445.9844,516.2969 Q1444.9063,516.75 1443.6094,516.75 Q1442.0938,516.75 1440.8906,516.125 Q1439.9063,515.625 1439.2188,514.5625 Q1438.5313,513.4844 1438.5313,512.2031 L1438.5313,511.0469 Q1438.5313,509.7188 1439.1406,508.5781 Q1439.7656,507.4219 1440.8594,506.8125 Q1441.9531,506.1875 1443.1875,506.1875 Q1443.9219,506.1875 1444.5625,506.3594 Q1445.2188,506.5156 1445.7656,506.875 Z " fill="#000000"/>
            <text fill="#000000" font-family="sans-serif" font-size="14" lengthAdjust="spacing" textLength="117" x="1462" y="516.7285">NodoMedicamento</text>
            <line style="stroke:#181818;stroke-width:0.5;" x1="1406.5" x2="1603.5" y1="527" y2="527"/>
            <text fill="#000000" font-family="sans-serif" font-size="14" lengthAdjust="spacing" textLength="181" x="1411.5" y="545.5332">-dato: MedicamentoPrescrito</text>
            <text fill="#000000" font-family="sans-serif" font-size="14" lengthAdjust="spacing" textLength="187" x="1411.5" y="563.1426">-siguiente: NodoMedicamento</text>
            <line style="stroke:#181818;stroke-width:0.5;" x1="1406.5" x2="1603.5" y1="570.2188" y2="570.2188"/>
        </g>
        <!--link Paciente to Usuario-->
        <g id="link_Paciente_Usuario">
            <path codeLine="41" d="M705,178.21 C705,208 705,226.15 705,255.92 " fill="none" id="Paciente-to-Usuario" style="stroke:#181818;stroke-width:1.0;"/>
            <polygon fill="none" points="705,273.92,711,255.92,699,255.92,705,273.92" style="stroke:#181818;stroke-width:1.0;"/>
        </g>
        <!--link Queja to Usuario-->
        <g id="link_Queja_Usuario">
            <path codeLine="42" d="M571.52,178.21 C597.37,208 616.951,230.5565 642.791,260.3265 " fill="none" id="Queja-to-Usuario" style="stroke:#181818;stroke-width:1.0;"/>
            <polygon fill="none" points="654.59,273.92,647.3222,256.3935,638.2598,264.2595,654.59,273.92" style="stroke:#181818;stroke-width:1.0;"/>
        </g>
        <!--link Expediente to Usuario-->
        <g id="link_Expediente_Usuario">
            <path codeLine="43" d="M891.35,196.24 C853.55,223.78 826.2877,243.6298 791.8677,268.7098 " fill="none" id="Expediente-to-Usuario" style="stroke:#181818;stroke-width:1.0;"/>
            <polygon fill="none" points="777.32,279.31,795.4011,273.5591,788.3344,263.8606,777.32,279.31" style="stroke:#181818;stroke-width:1.0;"/>
        </g>
        <!--link Cola to Nodo-->
        <g id="link_Cola_Nodo">
            <path codeLine="143" d="M2529.77,392.01 C2512.63,424.91 2494.363,459.9592 2478.973,489.4892 " fill="none" id="Cola-to-Nodo" style="stroke:#181818;stroke-width:1.0;"/>
            <polygon fill="#181818" points="2476.2,494.81,2483.9067,488.6775,2478.5108,490.376,2476.8123,484.9802,2476.2,494.81" style="stroke:#181818;stroke-width:1.0;"/>
        </g>
        <!--link QuejasPila to NodoP-->
        <g id="link_QuejasPila_NodoP">
            <path codeLine="144" d="M2357.31,383.55 C2344.39,417.81 2329.5282,457.2163 2317.4082,489.3363 " fill="none" id="QuejasPila-to-NodoP" style="stroke:#181818;stroke-width:1.0;"/>
            <polygon fill="#181818" points="2315.29,494.95,2322.2098,487.9417,2317.0552,490.272,2314.7249,485.1174,2315.29,494.95" style="stroke:#181818;stroke-width:1.0;"/>
        </g>
        <!--link ListaDobleCircularExpedientes to NodoExpediente-->
        <g id="link_ListaDobleCircularExpedientes_NodoExpediente">
            <path codeLine="145" d="M2137.15,383.55 C2131.59,414.66 2125.4946,448.7434 2119.9346,479.8834 " fill="none" id="ListaDobleCircularExpedientes-to-NodoExpediente" style="stroke:#181818;stroke-width:1.0;"/>
            <polygon fill="#181818" points="2118.88,485.79,2124.3996,477.6332,2119.7588,480.8678,2116.5242,476.227,2118.88,485.79" style="stroke:#181818;stroke-width:1.0;"/>
        </g>
        <!--link ListaSimpleBitacoraCitas to NodoBitacora-->
        <g id="link_ListaSimpleBitacoraCitas_NodoBitacora">
            <path codeLine="146" d="M1870.29,374.78 C1876.53,409.74 1884.4235,453.9337 1890.6735,488.8737 " fill="none" id="ListaSimpleBitacoraCitas-to-NodoBitacora" style="stroke:#181818;stroke-width:1.0;"/>
            <polygon fill="#181818" points="1891.73,494.78,1894.0828,485.2163,1890.8496,489.8581,1886.2078,486.625,1891.73,494.78" style="stroke:#181818;stroke-width:1.0;"/>
        </g>
        <!--link ListaSimpleCircularCitas to NodoCita-->
        <g id="link_ListaSimpleCircularCitas_NodoCita">
            <path codeLine="147" d="M1634.22,374.78 C1650.71,409.74 1671.7717,454.4127 1688.2417,489.3527 " fill="none" id="ListaSimpleCircularCitas-to-NodoCita" style="stroke:#181818;stroke-width:1.0;"/>
            <polygon fill="#181818" points="1690.8,494.78,1690.5807,484.9336,1688.6681,490.2573,1683.3444,488.3446,1690.8,494.78" style="stroke:#181818;stroke-width:1.0;"/>
        </g>
        <!--link ListaSimpleCircularMedicamentos to NodoMedicamento-->
        <g id="link_ListaSimpleCircularMedicamentos_NodoMedicamento">
            <path codeLine="148" d="M1393.33,374.78 C1417.62,409.74 1449.0061,454.9128 1473.2861,489.8528 " fill="none" id="ListaSimpleCircularMedicamentos-to-NodoMedicamento" style="stroke:#181818;stroke-width:1.0;"/>
            <polygon fill="#181818" points="1476.71,494.78,1474.8589,485.1067,1473.8567,490.674,1468.2894,489.6719,1476.71,494.78" style="stroke:#181818;stroke-width:1.0;"/>
        </g>
        <!--link Expediente to ListaSimpleCircularCitas-->
        <g id="link_Expediente_ListaSimpleCircularCitas">
            <path codeLine="150" d="M1186.76,136.8 C1286.01,151.45 1406.78,178.83 1505,230 C1533.99,245.1 1556.8901,265.5293 1576.8901,286.8993 " fill="none" id="Expediente-to-ListaSimpleCircularCitas" style="stroke:#181818;stroke-width:1.0;"/>
            <polygon fill="#181818" points="1580.99,291.28,1577.7606,281.9756,1577.5734,287.6294,1571.9197,287.4422,1580.99,291.28" style="stroke:#181818;stroke-width:1.0;"/>
        </g>
        <!--link Expediente to ListaSimpleCircularMedicamentos-->
        <g id="link_Expediente_ListaSimpleCircularMedicamentos">
            <path codeLine="151" d="M1142.35,196.04 C1162.85,207.2 1183.55,218.73 1203,230 C1236.5,249.41 1268.0082,269.0428 1297.9082,288.2028 " fill="none" id="Expediente-to-ListaSimpleCircularMedicamentos" style="stroke:#181818;stroke-width:1.0;"/>
            <polygon fill="#181818" points="1302.96,291.44,1297.5405,283.2163,1298.7502,288.7423,1293.2242,289.9521,1302.96,291.44" style="stroke:#181818;stroke-width:1.0;"/>
        </g>
        <!--SRC=[XLPBRjim4Dth54IwiL4OwBPU14ZyAGeagGgZwu2c9Z8RYHH82YZIva0zHozMVaI9fAZ4NjYQptl3cJUqvJDb7HQuHQJ1Kjue9UYvL_2LS7QYBu0-5N8CwJ1vnZNSSb61sF662tJRQ5icH7_KWlUiSc4VZf_DEmYqTFCm-ogA0GPT_P0z5fJBA_IxG2u93JPhGMZ3U7iMi4KdNJghdOr0rJSujctinySQr8FDMAqZlt7iR5haU2r6tX8J2ao19tvwl6pH7YiO7YcvB58UZJF3U7oy6Ek04f1zx-4d7fd0GazSXBUw4jE59SBT695ZXQ6QEU_XLmTLT4oeSBL5b2dtM0C3aT1Ug5HSKC9tL66vHNVw6PzespMmeuBedWhhIQBlDHF1fawUJme3qWCUT5dc2BumO_jYQvlFRvpSPlFdskj7srsJ4sFGWSZp6iXIzurBTF_lhwul5gSvv-BOd5JtdEZpnnsiAAuPbqh3vSKNjA8K88cWYaSyWxKZbBEGivqIyyYtkcB21JQLx-bOFEjRtSlZNDIMxQw16bVHuQpzHW5BAt3Bw6SGWxcEv7sAGjlnW-n0u1FK-fOmCcduS81m7WUfH4zKBx145I0xdcWgl9cc8XpL0w-ui_IDeYqFBOFCz5bqebZv-jREN87q7Yqrxypihopfn4jeYnr76P7WZXeacp0H35QDRnqnk5sLFJzFcpA9Levy-0ml0-FaZgWfao3q9V5DN-WCLtmrnGsLd7j9i2Yv6Av6DnzTLOIObkQsE1HMjYeVy7PDYJxNYtpHLPFZCuuiryfutWSEhwCSVk3Fq-IMU3qJiu6Ar6iCdg_2Pey3pMcRf7LF8r47vx22YxEzekQfvJnt_eFWG5999KYf6-jl-XOL6Mz2wESTqoKgo786UaemmrlPuKrQI406Hm8GJ2x6oOqqYnkBmqxStagRpRMRMd1ZU5jPlBtfFYvev-B- -TYnIOkRuoDj9zvR0nyS7g-8VaAlb_yEl1yN_GFu3m00]-->
    </g>
</svg>
